HIERARCHY
ROOT hip
{
  OFFSET 0 0 0
  CHANNELS 6 Xposition Yposition Zposition Zrotation Yrotation Xrotation
  JOINT abdomen
  {
    OFFSET 0 20.6881 -0.73152
    CHANNELS 3 Zrotation Xrotation Yrotation
    JOINT chest
    {
      OFFSET 0 11.7043 -0.48768
      CHANNELS 3 Zrotation Xrotation Yrotation
      JOINT neck
      {
        OFFSET 0 22.1894 -2.19456
        CHANNELS 3 Zrotation Xrotation Yrotation
        JOINT head
        {
          OFFSET -0.24384 7.07133 1.2192
          CHANNELS 3 Zrotation Xrotation Yrotation
          JOINT leftEye
          {
            OFFSET 4.14528 8.04674 8.04672
            CHANNELS 3 Zrotation Xrotation Yrotation
            End Site
            {
              OFFSET 1 0 0
            }
          }
          JOINT rightEye
          {
            OFFSET -3.6576 8.04674 8.04672
            CHANNELS 3 Zrotation Xrotation Yrotation
            End Site
            {
              OFFSET 1 0 0
            }
          }
        }
      }
      JOINT rCollar
      {
        OFFSET -2.68224 19.2634 -4.8768
        CHANNELS 3 Zrotation Xrotation Yrotation
        JOINT rShldr
        {
          OFFSET -8.77824 -1.95073 1.46304
          CHANNELS 3 Zrotation Xrotation Yrotation
          JOINT rForeArm
          {
            OFFSET -28.1742 -1.7115 0.48768
            CHANNELS 3 Zrotation Xrotation Yrotation
            JOINT rHand
            {
              OFFSET -22.5879 0.773209 7.07136
              CHANNELS 3 Zrotation Xrotation Yrotation
              JOINT rThumb1
              {
                OFFSET -1.2192 -0.487915 3.41376
                CHANNELS 3 Zrotation Xrotation Yrotation
                JOINT rThumb2
                {
                  OFFSET -3.37035 -0.52449 3.41376
                  CHANNELS 3 Zrotation Xrotation Yrotation
                  End Site
                  {
                    OFFSET -1.78271 -1.18214 1.43049
                  }
                }
              }
              JOINT rIndex1
              {
                OFFSET -7.75947 0.938293 5.60832
                CHANNELS 3 Zrotation Xrotation Yrotation
                JOINT rIndex2
                {
                  OFFSET -2.54057 -0.884171 1.56538
                  CHANNELS 3 Zrotation Xrotation Yrotation
                  End Site
                  {
                    OFFSET -1.62519 -0.234802 1.16502
                  }
                }
              }
              JOINT rMid1
              {
                OFFSET -8.24714 1.18213 3.41376
                CHANNELS 3 Zrotation Xrotation Yrotation
                JOINT rMid2
                {
                  OFFSET -3.10165 -0.590103 1.0647
                  CHANNELS 3 Zrotation Xrotation Yrotation
                  End Site
                  {
                    OFFSET -2.48547 -0.328903 0.83742
                  }
                }
              }
              JOINT rRing1
              {
                OFFSET -8.82822 0.546677 1.51678
                CHANNELS 3 Zrotation Xrotation Yrotation
                JOINT rRing2
                {
                  OFFSET -2.60934 -0.819778 -0.0198488
                  CHANNELS 3 Zrotation Xrotation Yrotation
                  End Site
                  {
                    OFFSET -2.33842 -0.294052 0.168128
                  }
                }
              }
              JOINT rPinky1
              {
                OFFSET -8.27202 -0.0477905 -0.4584
                CHANNELS 3 Zrotation Xrotation Yrotation
                JOINT rPinky2
                {
                  OFFSET -1.82734 -0.647385 -0.700984
                  CHANNELS 3 Zrotation Xrotation Yrotation
                  End Site
                  {
                    OFFSET -1.69225 -0.51767 -0.607171
                  }
                }
              }
            }
          }
        }
      }
      JOINT lCollar
      {
        OFFSET 2.68224 19.2634 -4.8768
        CHANNELS 3 Zrotation Xrotation Yrotation
        JOINT lShldr
        {
          OFFSET 8.77824 -1.95073 1.46304
          CHANNELS 3 Zrotation Xrotation Yrotation
          JOINT lForeArm
          {
            OFFSET 28.1742 -1.7115 0.48768
            CHANNELS 3 Zrotation Xrotation Yrotation
            JOINT lHand
            {
              OFFSET 22.5879 0.773209 7.07136
              CHANNELS 3 Zrotation Xrotation Yrotation
              JOINT lThumb1
              {
                OFFSET 1.2192 -0.487915 3.41376
                CHANNELS 3 Zrotation Xrotation Yrotation
                JOINT lThumb2
                {
                  OFFSET 3.37035 -0.52449 3.41376
                  CHANNELS 3 Zrotation Xrotation Yrotation
                  End Site
                  {
                    OFFSET 1.78271 -1.18214 1.43049
                  }
                }
              }
              JOINT lIndex1
              {
                OFFSET 7.75947 0.938293 5.60832
                CHANNELS 3 Zrotation Xrotation Yrotation
                JOINT lIndex2
                {
                  OFFSET 2.54057 -0.884171 1.56538
                  CHANNELS 3 Zrotation Xrotation Yrotation
                  End Site
                  {
                    OFFSET 1.62519 -0.234802 1.16502
                  }
                }
              }
              JOINT lMid1
              {
                OFFSET 8.24714 1.18213 3.41376
                CHANNELS 3 Zrotation Xrotation Yrotation
                JOINT lMid2
                {
                  OFFSET 3.10165 -0.590103 1.0647
                  CHANNELS 3 Zrotation Xrotation Yrotation
                  End Site
                  {
                    OFFSET 2.48547 -0.328903 0.83742
                  }
                }
              }
              JOINT lRing1
              {
                OFFSET 8.82822 0.546677 1.51678
                CHANNELS 3 Zrotation Xrotation Yrotation
                JOINT lRing2
                {
                  OFFSET 2.60934 -0.819778 -0.0198488
                  CHANNELS 3 Zrotation Xrotation Yrotation
                  End Site
                  {
                    OFFSET 2.33842 -0.294052 0.168128
                  }
                }
              }
              JOINT lPinky1
              {
                OFFSET 8.27202 -0.0477905 -0.4584
                CHANNELS 3 Zrotation Xrotation Yrotation
                JOINT lPinky2
                {
                  OFFSET 1.82734 -0.647385 -0.700984
                  CHANNELS 3 Zrotation Xrotation Yrotation
                  End Site
                  {
                    OFFSET 1.69225 -0.51767 -0.607171
                  }
                }
              }
            }
          }
        }
      }
    }
  }
  JOINT rButtock
  {
    OFFSET -8.77824 4.35084 1.2192
    CHANNELS 3 Zrotation Xrotation Yrotation
    JOINT rThigh
    {
      OFFSET 0 -1.70687 -2.19456
      CHANNELS 3 Zrotation Xrotation Yrotation
      JOINT rShin
      {
        OFFSET 0 -36.8199 0.73152
        CHANNELS 3 Zrotation Xrotation Yrotation
        JOINT rFoot
        {
          OFFSET 0.73152 -45.1104 -5.12064
          CHANNELS 3 Zrotation Xrotation Yrotation
          End Site
          {
            OFFSET -1.1221 -3.69964 12.103
          }
        }
      }
    }
  }
  JOINT lButtock
  {
    OFFSET 8.77824 4.35084 1.2192
    CHANNELS 3 Zrotation Xrotation Yrotation
    JOINT lThigh
    {
      OFFSET 0 -1.70687 -2.19456
      CHANNELS 3 Zrotation Xrotation Yrotation
      JOINT lShin
      {
        OFFSET 0 -36.8199 0.73152
        CHANNELS 3 Zrotation Xrotation Yrotation
        JOINT lFoot
        {
          OFFSET -0.73152 -45.1104 -5.12064
          CHANNELS 3 Zrotation Xrotation Yrotation
          End Site
          {
            OFFSET 1.1221 -3.69964 12.103
          }
        }
      }
    }
  }
}
MOTION
Frames:	4
Frame Time:	0.00833333
-67.9263 79.2839 30.1553 -15.5436 74.2288 -11.2046 -5.06403 10.2473 -9.43104 2.14458 -7.24989 -2.75609 -2.91264 -1.86738 -6.09836 7.61264 20.3039 -11.3894 -0.0 0.0 0.0 -0.0 0.0 0.0 5.57061e-14 2.27272e-13 2.96105e-13 74.8051 41.4047 -12.7577 -25.3308 -21.8243 54.1565 -0.173023 -11.7829 -1.67989 2.97816e-10 9.87403e-10 -1.11857e-09 5.23159e-10 1.71168e-09 -1.93471e-09 2.97818e-10 9.87402e-10 -1.11858e-09 7.73091 5.47488 0.417314 2.97816e-10 9.87403e-10 -1.11858e-09 2.90554 0.965183 0.102902 2.97821e-10 9.87401e-10 -1.11858e-09 10.2786 0.731801 0.0259123 2.97812e-10 9.87404e-10 -1.11857e-09 2.22167 -0.733487 -0.20892 5.55882e-14 2.27283e-13 2.95698e-13 -45.7427 60.9725 -39.2751 28.4319 -35.395 -76.0007 1.25627 -30.0914 4.67134 2.79421e-11 3.96617e-09 -1.65617e-09 8.72586e-11 6.8217e-09 -2.8618e-09 2.79349e-11 3.96616e-09 -1.65616e-09 -7.73091 5.47488 -0.417314 2.79384e-11 3.96616e-09 -1.65617e-09 -2.90554 0.965183 -0.102902 2.79335e-11 3.96617e-09 -1.65617e-09 -10.2786 0.731801 -0.0259123 2.79446e-11 3.96617e-09 -1.65617e-09 -2.22167 -0.733487 0.20892 -2.03217e-16 0.0 -3.88251e-19 -6.9846 -32.4079 -3.46081 -1.29315 62.6872 1.60182 8.28332 -21.5488 17.1069 2.03217e-16 0.0 3.88251e-19 10.3263 -25.6903 -4.96621 1.14586 63.3521 -2.22358 3.52267 -40.4584 5.96159
-67.9691 79.263 32.4146 -16.7696 74.8797 -12.1917 -5.11584 10.1706 -9.52739 2.11577 -7.20585 -2.78627 -2.91224 -1.83367 -6.15596 7.80404 20.4742 -11.5258 -0.0 0.0 0.0 -0.0 0.0 0.0 4.05656e-15 4.38912e-13 4.26393e-13 75.9109 41.0726 -13.4496 -25.2877 -21.7277 53.9885 -0.158526 -11.2759 -1.60572 7.38118e-10 3.23828e-09 -2.62144e-09 1.29967e-09 5.60268e-09 -4.52698e-09 7.38117e-10 3.23828e-09 -2.62144e-09 7.73091 5.47488 0.417314 7.38116e-10 3.23828e-09 -2.62144e-09 2.90554 0.965183 0.102902 7.38122e-10 3.23828e-09 -2.62144e-09 10.2786 0.731801 0.0259123 7.38112e-10 3.23828e-09 -2.62143e-09 2.22167 -0.733487 -0.20892 3.94473e-15 4.38921e-13 4.25946e-13 -47.0639 61.0297 -36.9964 28.4314 -35.3359 -75.902 1.279 -30.33 4.71643 4.92213e-10 2.31669e-09 -1.22729e-09 8.761e-10 3.95464e-09 -2.10918e-09 4.92206e-10 2.31668e-09 -1.22728e-09 -7.73091 5.47488 -0.417314 4.92209e-10 2.31668e-09 -1.22729e-09 -2.90554 0.965183 -0.102902 4.92206e-10 2.31669e-09 -1.22729e-09 -10.2786 0.731801 -0.0259123 4.92217e-10 2.3167e-09 -1.22729e-09 -2.22167 -0.733487 0.20892 -2.03217e-16 0.0 -3.88251e-19 -6.32081 -32.0513 -2.11036 -1.25964 62.2408 1.56128 8.57395 -20.1142 18.5497 2.03217e-16 0.0 3.88251e-19 10.4068 -25.9534 -5.61368 1.14506 63.3847 -2.23638 3.88187 -40.8717 6.47719
-67.9973 79.2206 34.6499 -17.6274 75.5002 -12.8295 -5.30979 10.0935 -9.54993 2.05251 -7.15572 -2.79997 -2.80933 -1.6994 -6.20072 7.84936 20.3883 -11.6345 -0.0 0.0 0.0 -0.0 0.0 0.0 -1.04798e-13 7.47458e-13 4.18986e-13 77.0232 40.6581 -14.089 -25.2087 -21.5513 53.6952 -0.145607 -10.8137 -1.53827 1.34697e-09 4.34178e-09 -3.17937e-09 2.35654e-09 7.50407e-09 -5.48425e-09 1.34697e-09 4.34178e-09 -3.17937e-09 7.73091 5.47488 0.417314 1.34697e-09 4.34178e-09 -3.17937e-09 2.90554 0.965183 0.102902 1.34697e-09 4.34178e-09 -3.17937e-09 10.2786 0.731801 0.0259123 1.34696e-09 4.34178e-09 -3.17936e-09 2.22167 -0.733487 -0.20892 -1.04872e-13 7.47459e-13 4.18583e-13 -48.3307 61.1086 -34.6765 28.4307 -35.2887 -75.8245 1.2933 -30.4761 4.74427 8.0999e-10 8.33502e-10 -5.93746e-10 1.40649e-09 1.37916e-09 -1.00448e-09 8.09984e-10 8.33495e-10 -5.93735e-10 -7.73091 5.47488 -0.417314 8.09987e-10 8.33497e-10 -5.93749e-10 -2.90554 0.965183 -0.102902 8.09984e-10 8.335e-10 -5.93747e-10 -10.2786 0.731801 -0.0259123 8.09994e-10 8.33507e-10 -5.93751e-10 -2.22167 -0.733487 0.20892 -2.03217e-16 0.0 -3.88251e-19 -5.82399 -31.606 -0.93944 -1.21962 61.6861 1.51547 8.8475 -18.9724 19.8962 2.03217e-16 0.0 3.88251e-19 10.3236 -26.1408 -6.36464 1.14465 63.3608 -2.23018 3.85856 -41.3258 6.44732
-68.0049 79.1428 36.8487 -18.4661 76.0971 -13.4921 -5.61115 10.0124 -9.50347 1.95726 -7.09779 -2.7976 -2.63927 -1.5099 -6.23932 7.80626 20.1343 -11.7306 -0.0 0.0 0.0 -0.0 0.0 0.0 -2.56306e-13 1.13444e-12 3.25134e-13 78.1368 40.1607 -14.6721 -25.0959 -21.3025 53.2943 -0.133417 -10.363 -1.47266 2.1183e-09 4.87865e-09 -3.23348e-09 3.68828e-09 8.42163e-09 -5.56892e-09 2.1183e-09 4.87865e-09 -3.23348e-09 7.73091 5.47488 0.417314 2.1183e-09 4.87865e-09 -3.23348e-09 2.90554 0.965183 0.102902 2.11831e-09 4.87865e-09 -3.23348e-09 10.2786 0.731801 0.0259123 2.1183e-09 4.87865e-09 -3.23347e-09 2.22167 -0.733487 -0.20892 -2.5632e-13 1.13443e-12 3.2483e-13 -49.5334 61.1874 -32.3337 28.4302 -35.2562 -75.7708 1.30051 -30.5483 4.75812 1.06009e-09 -6.36314e-10 2.07082e-10 1.81535e-09 -1.17181e-09 3.89027e-10 1.06008e-09 -6.36319e-10 2.07089e-10 -7.73091 5.47488 -0.417314 1.06009e-09 -6.36315e-10 2.07079e-10 -2.90554 0.965183 -0.102902 1.06008e-09 -6.36316e-10 2.0708e-10 -10.2786 0.731801 -0.0259123 1.06009e-09 -6.36312e-10 2.07074e-10 -2.22167 -0.733487 0.20892 -2.03217e-16 0.0 -3.88251e-19 -5.44533 -31.0948 0.105295 -1.17462 61.0345 1.46562 9.11987 -18.0233 21.2036 2.03217e-16 0.0 3.88251e-19 10.1367 -26.297 -7.14865 1.1461 63.3237 -2.21437 3.609 -41.8168 6.10001
